<svg xmlns="http://www.w3.org/2000/svg" viewBox="0 0 512 512" role="img" aria-labelledby="title desc">
  <title id="title">GOYO</title>
  <desc id="desc">Blue GOYO app icon</desc>
  <rect width="512" height="512" rx="112" fill="#0B5CFF"/>
  <circle cx="256" cy="256" r="164" fill="#FFFFFF" opacity="0.14"/>
  <path fill="#FFFFFF" d="M128 252c0-60 44-104 107-104 36 0 66 14 86 38l-39 34c-12-14-26-21-45-21-31 0-52 22-52 53s21 53 53 53c14 0 27-3 38-11v-25h-47v-45h100v96c-24 22-58 35-94 35-63 0-107-44-107-103Zm222-97h56v193h-56V155Z"/>
</svg>
